# xmcd
#
# Track frame offsets:
#	150
#	23737
#	36690
#	51187
#	65800
#	80150
#	92952
#	111030
#	126010
#	139072
#	155835
#	173695
#	187730
#	199177
#
# Disc length: 2847 seconds
#
# Revision: 7
# Processed by: cddbd v1.5.2PL0 Copyright (c) Steve Scherf et al.
# Submitted via: EasyCDDAExtractor 10.0.6.1
#
DISCID=ca0b1d0e
DTITLE=Various Artist - Songs of Bill Monroe
DYEAR=2002
DGENRE=Bluegrass
TTITLE0=Bruce Hornsby -  Darlin' Corey
TTITLE1=Dolly Parton -  Cry, Cry Darlin'
TTITLE2=Steve Wariner - Heavy Traffic Ahead
TTITLE3=Patty Loveless -  Close By
TTITLE4=John Fogerty -  Blue Moon Of Kentucky
TTITLE5=The Whites -  Used To Be
TTITLE6=The Dixie Chicks -  Walk Softly On This Heart Of Mine
TTITLE7=Travis Tritt -  My Little Georgia Rose
TTITLE8=Charlie Daniels -  I Am A Pilgrim
TTITLE9=Joan Osborne -  On The Old Kentucky Shore
TTITLE10=Mary Chapin Carpenter -  Blue Night
TTITLE11=Dwight Yoakam -  Rocky Road Blues
TTITLE12=Ricky,Travis,Sharon and Cheryl,Charlie,Mary Chapin -  Uncle Pen
TTITLE13=Bid Mon - Big Mon (Instrumental)
EXTD="Though the late Bill Monroe is generally acknowledged as the "father of 
EXTD=bluegrass music"--he literally forged this strident musical hybrid from e
EXTD=arlier mountain string-band styles in the 1940s--his musical legacy has r
EXTD=eached far beyond the often narrow confines of the style he created. Fitt
EXTD=ingly, a giddy stylistic range of artists help Monroe disciple Ricky Skag
EXTD=gs prove this point on this brilliant salute, which was originally issued
EXTD=in 2000 under the name Big Mon. Bruce Hornsby opens with a haunting, soa
EXTD=ring rendition of the murder ballad "Darlin' Corey." John Fogerty unleash
EXTD=es an absolutely stunning neo-rockabilly revival of "Blue Moon of Kentuck
EXTD=y," a Monroe classic that was also an early hit for Elvis Presley. With h
EXTD=is deft scat singing and lead guitar work, Steve Wariner transforms Monro
EXTD=e's stalwart "Heavy Traffic Ahead" into a sprightly jazz-pop excursion. C
EXTD=ountry-rocker Charlie Daniels also shines on his reverent gospel-blues re
EXTD=ndition of "I Am a Pilgrim." Though Skaggs keeps a surprisingly low profi
EXTD=le throughout, he and Joan Osborne contribute a moving duet to "On the Ol
EXTD=d Kentucky Shore." This 2002 release adds a version of the Monroe favorit
EXTD=e "Uncle Pen" that wasn't available on the Big Mon release. Skaggs's genr
EXTD=e-blending tribute may make bluegrass purists bristle, but this collectio
EXTD=n succeeds as few other tributes have in reminding listeners of the amazi
EXTD=ng breadth of Monroe's legacy. --Bob Allen"  My name is Phillip.
EXTT0=
EXTT1=
EXTT2=
EXTT3=
EXTT4=
EXTT5=
EXTT6=
EXTT7=
EXTT8=
EXTT9=
EXTT10=
EXTT11=
EXTT12=
EXTT13=
PLAYORDER=
